
<svg xmlns="http://www.w3.org/2000/svg" viewBox="0 0 116.3 24.3" width="116.3" height="24.3" xml:space="preserve">
  <path fill="#0094f6" d="M15 24.3H7.7c-2.7 0-4.7-.6-5.9-1.6S0 19.9 0 17.5V0h4.7v17.5c0 1 .3 1.6.7 2 .4.4 1.2.6 2.3.6H15v4.2zM32.9 20h-8.3c-1.1 0-1.9-.1-2.3-.5-.5-.4-.7-1-.7-2v-3.3h7.6l.3-4.3h-7.9V4.2H33V0h-16v17.9c0 2.4.5 4 1.6 5s3 1.4 5.8 1.4h8.6V20zm20-2.7c0-2.7-1.1-4.6-3.4-5.7.8-.3 1.5-1 2.1-1.8a6.6 6.6 0 0 0-.8-8C49.6.5 47.8 0 45.6 0H35.3v18c0 2.3.6 4 1.7 4.9 1.1 1 3 1.4 5.7 1.4H46a7 7 0 0 0 5-1.8c1.3-1.2 1.9-3 1.9-5.2M40 9.5V4.2h5.2c1.7 0 2.6.9 2.6 2.7 0 1.7-.9 2.6-2.6 2.6H40zm8.1 7.6c0 2-.8 3-2.6 3H43c-1 0-1.8-.2-2.3-.6-.4-.4-.7-1-.7-2v-3.8h5.5c1 0 1.7.3 2 .9.5.5.6 1.4.6 2.5m18-15c-.2-.9-.6-1.4-1-1.7s-.8-.4-1.4-.4c-.7 0-1.2.1-1.6.4s-.8.9-1.1 1.6l-7.8 22.3h5l1.3-4.2h8.1l1.4 4.2h5L66.1 2zm-5.4 14 3-9.6 2.8 9.6h-5.8zm28-1.6a6.6 6.6 0 0 0 3.1-2.5 7.1 7.1 0 0 0 1.3-4.2c0-2.3-.7-4.1-2.1-5.6A7.6 7.6 0 0 0 85.2 0h-4c-2 0-3.4.4-4.2 1.2s-1.3 2.2-1.3 4v19h4.8v-9h3.4l4.7 9h5.5l-5.4-9.7zm-1.3-4.2c-.6.7-1.5 1-2.5 1h-4.4v-5c0-1.4.7-2 2-2H85c1 0 2 .2 2.5.9.7.6 1 1.5 1 2.5s-.3 1.9-1 2.6M108.5 2c-.3-.8-.6-1.3-1-1.6s-.9-.4-1.5-.4-1.1.1-1.5.4c-.5.3-.8.9-1.2 1.6l-7.8 22.3h5l1.3-4.2h8.2l1.3 4.2h5L108.5 2zM103 16l3-9.5L109 16H103z"/>
</svg>
