
<svg xmlns="http://www.w3.org/2000/svg" width="131.2" height="66.5"><path d="M122.8 20l-1.1 2.5-1.2-2.6-.7 3.4h.5l.3-2 1 2.1 1-2.2.5 2.1h.4l-.7-3.4zm-4.2 3.3h.4v-2.9h.8V20h-2v.4h.8v3zm-8.1-1.1c-5.5 0-8.2 4.2-8.2 4.2V15.8h-8.5v35h8.6v-16a5 5 0 015-5c3.8 0 4.4 2.2 4.4 4.5v16.5h8.8V31.5c0-5.3-4.5-9.3-10.1-9.3m-31.6 8.5c0-1.1.8-1.7 2.2-1.7a4 4 0 013.5 2.2l6.4-2.9a9.9 9.9 0 00-9.2-6.1c-6.2 0-10.7 3.7-10.7 9.1 0 9.9 12.6 8 12.6 11.5 0 1.4-1.7 2-3 2-2.6 0-4-2.5-4-2.5l-6.5 3.3c2.2 4.1 5.6 5.9 10.3 5.9 6 0 11.3-3.3 11.3-9.3 0-9.7-13-8.4-13-11.5m-24.4-8.5c-8.6 0-15.4 6.3-15.4 14.7 0 7.8 6.6 14.9 15.2 14.9 9.2 0 15.3-6.5 15.3-15S63 22.2 54.4 22.2M29.3 30l-3.8-1.5c-1.8-.7-4-1.4-4-3.2 0-1.9 1.3-3.1 3.5-3.1 3.4 0 7 2.8 7 2.8l3.7-6.9a21.4 21.4 0 00-11.3-3.7c-6.2 0-12 4.1-12 11.1 0 5 2.4 8.1 6.9 10.1l5.2 2.2c3.4 1.2 3.6 2 3.6 3.4 0 1.9-2.5 2.7-5 2.7-3.4 0-6.6-1.8-8.3-3.4l-3.6 7.1c3.6 2.3 7.1 4.4 12 4.4 7.1 0 14-4 14-11.5 0-5.2-2.6-8.4-8-10.5m102 27.3l-127 9.1L0 9.2 127 0l4.2 57.4z" opacity=".9" fill="#01a1ab"/></svg>
