
<svg xmlns="http://www.w3.org/2000/svg" version="1.1" width="217.8" height="81"><defs><style>.cls-1{fill:#1c2235}</style></defs><path class="cls-1" d="M32.8 28.7A16.7 16.7 0 0027 25a20.1 20.1 0 00-7.4-1.3 15 15 0 00-4.4.6 16.8 16.8 0 00-3.5 1.5 14.6 14.6 0 00-2.7 2l-.7.6v-.7L8 25.3v-.7H0V81l8.4-4.6V56.9l.5.4a15.2 15.2 0 002.8 1.8 17 17 0 007.6 1.7 19.8 19.8 0 007.4-1.4 17.7 17.7 0 006-3.8 17.3 17.3 0 003.7-5.9 19.6 19.6 0 001.4-7.3 21.8 21.8 0 00-1.3-7.8 16.8 16.8 0 00-3.7-5.9zM28 46.3a9.7 9.7 0 01-2 3.3 9 9 0 01-3 2.2 10.2 10.2 0 01-4.2.8 11.1 11.1 0 01-4.2-.8 9.8 9.8 0 01-3.3-2.2 10.2 10.2 0 01-2.2-3.2 10.6 10.6 0 01-.8-4.2 10.1 10.1 0 013-7.3 10 10 0 013.3-2.1A11.1 11.1 0 0119 32a10.2 10.2 0 014 .8 9 9 0 015.1 5.3 12.6 12.6 0 010 8.2z" /><path class="cls-1" d="M69.3 24.6h8.3V60h-8.3z"/><path class="cls-1" transform="translate(-32.9 -29.2)" d="M157.6 43.4v10.4H152v7.6h5.5v27.8h8.3V61.4h8.2l.7-7.6h-8.9v-15z"/><path class="cls-1" d="M172.5 27.3a16.3 16.3 0 00-10.5-3.6 17.6 17.6 0 00-7.2 1.5 19.5 19.5 0 00-5.9 4 19 19 0 00-4 5.9 18.3 18.3 0 000 14.4 18.6 18.6 0 004 5.9 19.6 19.6 0 006 4 18.5 18.5 0 007.3 1.4 21.3 21.3 0 007.4-1.3 19.3 19.3 0 006.2-3.7l.5-.5-6.2-6-.5.5a9 9 0 01-3.3 2 11 11 0 01-9.7-.8 10.3 10.3 0 01-3.4-3.5l5.7-2.2 7-2.8 6.8-2.7c2.1-1 4-1.6 5.7-2.2l.7-.3-.2-.6a19.9 19.9 0 00-6.4-9.4zm-7.4 9l-4.7 2-5 2-3.6 1.5a9.2 9.2 0 01.8-3.5 11 11 0 012.1-3.3 10.8 10.8 0 013.3-2.2 9.9 9.9 0 014-.9 9.2 9.2 0 014 1 5.7 5.7 0 012.4 2z" /><path class="cls-1" transform="translate(-32.9 -29.2)" d="M224.8 29.2l-8.4 4.6v55.4h8.4z"/><path class="cls-1" d="M57.4 24.3a16.8 16.8 0 00-3.5 1.5 15.2 15.2 0 00-2.8 2l-.6.6v-.7l-.2-2.3v-.7h-8.2V60h8.5V41.8a10.1 10.1 0 01.7-3.6 10.2 10.2 0 012.2-3.3 10 10 0 013.3-2.1 11.5 11.5 0 017-.5v-8.5h-2a15 15 0 00-4.4.5z" /><path class="cls-1"  transform="translate(-32.9 -29.2)" d="M132.2 63.2l-6.8-9.5h-10.5l12 16.8-13.4 18.7H124l8.2-11.4 8.1 11.4h10.5l-13.4-18.7 12-16.8H139z"/><circle cx="209.3" cy="52.4" r="8.5" fill="#545fff"/></svg>
