
<?xml version="1.0" encoding="UTF-8" standalone="no"?>
<svg width="263.6" height="44.9" viewBox="0 348.6 263.6 44.9" xmlns="http://www.w3.org/2000/svg">
  <path fill="#2b9587" d="M0 353.5h9l8.4 18 8.5-18h8.8l-13.3 25.7V393h-8v-13.8zm53.3 40c-9 0-16-6.3-16-16.2 0-9.8 7.2-16.2 16.3-16.2 9 0 16.1 6.3 16.1 16.2 0 10-7.2 16.2-16.4 16.2zm0-6.9c4.2 0 8.2-3 8.2-9.3 0-6.2-3.9-9.3-8-9.3-4.3 0-8 3-8 9.3 0 6.3 3.5 9.3 7.8 9.3zm51.9 6.4h-8v-4c-2 2.7-5.5 4.4-9.4 4.4-7.3 0-12.6-4.8-12.6-13.4v-18.4h8v17.3c0 5 2.8 7.7 7 7.7s7-2.7 7-7.7v-17.3h8Zm22.4-15.2H121V393h-8v-39.5h14.6c9.5 0 14.3 5.3 14.3 12.2 0 6-4 12.1-14.3 12.1zm-.3-6.4c4.4 0 6.4-2.2 6.4-5.7s-2-5.8-6.4-5.8H121v11.5zm28.2 21.6h-8v-31.4h8v4.9c2-3.2 5.2-5.3 9.6-5.3v8.3H163c-4.7 0-7.5 1.8-7.5 7.9zm14-39.8c0-2.6 2.1-4.6 5-4.6 2.8 0 4.8 2 4.8 4.6 0 2.6-2 4.7-4.9 4.7-2.7 0-4.8-2-4.8-4.7zm1 8.4h7.9V393h-8zm29.2-.5c7.8 0 13 4 14.8 11.1h-8.6c-.9-2.7-3-4.3-6.3-4.3-4.4 0-7.4 3.3-7.4 9.4 0 6.1 3 9.4 7.4 9.4 3.3 0 5.3-1.5 6.3-4.3h8.6c-1.7 6.7-7 11.1-14.8 11.1-9.1 0-15.6-6.3-15.6-16.2 0-9.8 6.5-16.2 15.6-16.2zm34.3 32.4c-9 0-15.7-6.3-15.7-16.2 0-9.8 6.4-16.2 15.7-16.2 9.3 0 15.5 6.2 15.5 15.5 0 1 0 2-.2 3h-23c.4 4.7 3.6 7.3 7.6 7.3 3.4 0 5.2-1.7 6.3-3.8h8.6c-1.7 5.8-7 10.4-14.8 10.4zm-7.6-19.1h15c-.2-4.2-3.5-6.8-7.6-6.8-3.8 0-6.8 2.4-7.4 6.8zm32.4 19c-2.9 0-4.9-2-4.9-4.7 0-2.6 2-4.6 5-4.6 2.8 0 4.7 2 4.7 4.6 0 2.6-2 4.7-4.8 4.7z"/>
</svg>
