
<svg xmlns="http://www.w3.org/2000/svg" width="600" height="250"><path d="M187.2 23.4c-15 0-31.1 4.9-41.7 9.8-17.7 8-29.3 16.4-37.9 25.6a135.8 135.8 0 00-19.6 29H56c-1 0-1.8.5-2.2 1.3l-4.2 8.2a2.5 2.5 0 002.2 3.6h30.4l-57 121c-.4 1-.2 2 .5 2.8l1.1 1.1c.6.6 1.4 1 2.2.8l23.2-3.6c.8-.1 1.5-.6 1.8-1.3l62.8-120.8h40c.9 0 1.7-.5 2.2-1.3l4.5-8.2c.4-.8.4-1.7 0-2.4a2.5 2.5 0 00-2.1-1.3h-38L135.2 64a48.4 48.4 0 0110.4-16c2.4-2.2 5.3-4.1 9-5.4a40 40 0 0125.7-.3c4 1 7.9 2 12 2.1 2 0 4-.5 5.7-1.4a14.6 14.6 0 006.9-7.9c.3-1 .5-1.8.5-2.8 0-1-.2-1.8-.6-2.7a7.8 7.8 0 00-3-3.2A19 19 0 00195 24c-2.5-.4-5.1-.6-7.8-.6zM390.7 75c-28.1 0-55.9 8.8-76.8 21.6a95.5 95.5 0 00-25.4 22c-6.2 7.9-9.8 16.4-9.8 25 0 3.6.8 7.4 2.7 10.9 2.7 5.2 7.8 9.8 15.4 13 7.6 3.2 17.8 5 31.1 5 34 0 62.3-11.3 87.6-25.8.7-.4 1.2-1.2 1.2-2 0-1-.4-1.8-1.1-2.2l-5.4-3.3c-.7-.5-1.6-.5-2.4-.2-21.4 10.7-43.5 18-65 18-8.7 0-16.2-1.3-21.3-3.6a15.6 15.6 0 01-5.7-4 7.6 7.6 0 01-1.8-5c0-4.4.6-8.5 2.3-12.8 20.3-1 47.9-3.8 70.8-9.6 11.8-3 22.4-6.7 30.2-11.6 3.9-2.5 7.1-5.2 9.5-8.3 2.3-3.2 3.6-6.8 3.6-10.7 0-1.8-.4-3.4-1.1-4.9a14.9 14.9 0 00-6.4-5.9c-4-2.2-9.2-3.5-14.8-4.4-5.7-.9-11.7-1.2-17.4-1.2zm144.6 0c-28.1 0-55.9 8.8-76.8 21.6a95.5 95.5 0 00-25.4 22c-6.2 7.9-9.8 16.4-9.9 25 0 3.6.9 7.4 2.7 10.9 2.8 5.2 7.9 9.8 15.5 13 7.6 3.2 17.8 5 31.1 5 34 0 62.3-11.3 87.6-25.8.7-.4 1.2-1.2 1.2-2 0-1-.4-1.8-1.1-2.2l-5.4-3.3c-.7-.5-1.6-.5-2.4-.2-21.5 10.7-43.6 18-65 18-8.8 0-16.3-1.3-21.3-3.6a15.4 15.4 0 01-5.7-4 7.6 7.6 0 01-1.8-5c0-4.4.6-8.5 2.3-12.8 20.3-1 47.9-3.8 70.8-9.6 11.8-3 22.3-6.7 30.1-11.6 4-2.5 7.2-5.2 9.5-8.3 2.4-3.2 3.7-6.8 3.7-10.7 0-1.8-.4-3.4-1.2-4.9a14.9 14.9 0 00-6.3-5.9c-4-2.2-9.2-3.5-14.9-4.4-5.6-.9-11.6-1.2-17.3-1.2zm-311.8 2.3c-5.1 0-10.6 1.3-16.3 3.3a185.6 185.6 0 00-42.6 23.6c-.7.4-1 1.2-1 2s.4 1.5 1 2l5 3.3c.8.5 2 .6 2.7 0 3-1.9 8.3-5.1 14.1-7.9 3-1.3 6-2.6 8.8-3.4 2.8-1 5.5-1.4 7.7-1.4 2 0 3.2.5 3.9 1.1.7.6 1 1.3.9 1.5l-.3 2c-.8 2.5-2.6 6.1-4 8.3l-30 54.1-.6 1.2c-.2.5-.5 1.1-.5 2a4.3 4.3 0 001.6 3l2.7 1.2a29.5 29.5 0 0010.4 1.7c3.4 0 6.7 0 9.3-.3a21 21 0 003.5-.5l1.5-.6c.5-.3 1-.6 1.5-1.4l6.9-12.6c6.2-10 16-24.3 27.4-36 5.7-6 11.7-11.2 17.9-14.9a36 36 0 0118.3-6c4.3 0 9.2.8 14 .9a17.8 17.8 0 0018.4-17 8 8 0 00-1-4.1 8 8 0 00-2-2.4c-1.4-1-3-1.6-4.8-2-1.9-.5-4-.7-6.3-.7-6.6 0-13.6 2.4-20.7 5.9a163.9 163.9 0 00-30.5 20.8c-4.1 3.3-7.8 6.6-11 9.6l8-15a58.8 58.8 0 003.8-8.9c.2-.8.4-1.6.4-2.5 0-1.7-.6-3.5-1.6-4.8-.8-1-1.8-1.9-3-2.5-1.7-1-3.7-1.6-6-2-2.2-.4-4.8-.6-7.5-.6zm158.4 8.9c4.7 0 8.2.8 10.4 2 1 .6 1.7 1.2 2.1 1.9.5.6.7 1.3.7 2 0 2.3-.6 4.3-1.8 6.3-2 3.5-5.7 6.7-11 9.6-7.8 4.3-18.6 7.6-30.3 9.8-10.1 2-21 3.2-31 3.7 1.4-2.2 3.5-4.8 6-7.4a103 103 0 0124.2-18.8c9.6-5.4 20.3-9.1 30.7-9.1zm144.6 0c4.7 0 8.2.8 10.3 2 1 .6 1.8 1.2 2.2 1.9.4.6.6 1.3.6 2 0 2.3-.6 4.3-1.7 6.3-2 3.5-5.8 6.7-11 9.6-7.8 4.3-18.6 7.6-30.3 9.8-10.1 2-21 3.2-31.1 3.7 1.5-2.2 3.6-4.8 6-7.4 6-6.4 14.6-13.5 24.3-18.8 9.6-5.4 20.3-9.1 30.7-9.1z" fill="#cd1e25"/></svg>
