
<svg width="130" height="30" viewBox="0 0 130 30" fill="none" xmlns="http://www.w3.org/2000/svg">
<path d="M13.3144 24.6648C12.4951 25.3215 11.4299 25.6088 10.1599 25.6088C8.56219 25.6088 7.2922 25.0752 6.34995 24.0082C5.4077 22.9822 4.91609 21.5458 4.91609 19.7811C4.91609 17.9754 5.4077 16.539 6.39091 15.472C7.37413 14.4049 8.68509 13.8304 10.2419 13.8304C11.3889 13.8304 12.3722 14.1176 13.1915 14.7332C14.0109 15.3488 14.5025 16.2107 14.7892 17.2777L19.3776 16.4979C18.9269 14.3639 17.8618 12.6813 16.2231 11.409C14.5434 10.1368 12.536 9.48016 10.1599 9.48016C7.21026 9.48016 4.79319 10.4651 2.86772 12.394C0.983218 14.3228 0 16.7852 0 19.7811C0 22.6949 0.94225 25.1573 2.86772 27.0862C4.79319 29.015 7.21026 30 10.1599 30C12.6589 30 14.7483 29.3023 16.4279 27.948C18.1486 26.5527 19.2137 24.87 19.5415 22.8591L14.9941 22.0793C14.7483 23.1464 14.1747 24.0492 13.3144 24.6648ZM32.3233 9.48016C29.2917 9.48016 26.8336 10.4651 24.8672 12.394C22.9008 14.3228 21.9176 16.7852 21.9176 19.7401C21.9176 22.6949 22.9008 25.1573 24.8672 27.0862C26.8336 29.015 29.3327 30 32.3233 30C35.3549 30 37.8129 29.015 39.8203 27.0862C41.7867 25.1573 42.77 22.6949 42.77 19.7401C42.77 16.7852 41.7867 14.3228 39.8203 12.394C37.8539 10.4651 35.3549 9.48016 32.3233 9.48016ZM36.3381 24.0082C35.3139 25.1163 34.0029 25.6498 32.3233 25.6498C30.6846 25.6498 29.3327 25.1163 28.3494 24.0082C27.3253 22.9001 26.8336 21.5048 26.8336 19.7401C26.8336 17.9754 27.3253 16.539 28.3494 15.472C29.3736 14.3639 30.6846 13.8304 32.3233 13.8304C33.962 13.8304 35.3139 14.3639 36.3381 15.472C37.3623 16.58 37.8539 17.9754 37.8539 19.7401C37.8539 21.5048 37.3623 22.9001 36.3381 24.0082ZM51.9057 12.3119L51.6189 9.84952H47.1944V29.5896H51.9057V19.2886C51.9057 17.6881 52.3563 16.4569 53.2576 15.513C54.1589 14.6101 55.306 14.1587 56.6579 14.1587C57.3544 14.1587 58.0508 14.2408 58.7063 14.446L59.2389 9.80848C58.5424 9.64432 57.8869 9.5212 57.3134 9.5212C54.9783 9.56224 53.1757 10.4651 51.9057 12.3119ZM64.9743 0.779754C64.114 0.779754 63.4175 1.06703 62.885 1.60055C62.3524 2.13406 62.0656 2.83174 62.0656 3.65253C62.0656 4.47332 62.3524 5.171 62.885 5.70451C63.4175 6.23803 64.114 6.52531 64.9743 6.52531C65.8346 6.52531 66.5311 6.23803 67.0636 5.70451C67.5962 5.171 67.883 4.47332 67.883 3.65253C67.883 2.83174 67.5962 2.1751 67.0636 1.60055C66.4901 1.06703 65.7936 0.779754 64.9743 0.779754ZM62.5982 29.5896H67.3094V9.84952H62.5982V29.5896ZM80.8697 9.48016C77.8381 9.48016 75.38 10.4651 73.4136 12.394C71.4472 14.3228 70.4639 16.7852 70.4639 19.7401C70.4639 22.6949 71.4472 25.1573 73.4136 27.0862C75.38 29.015 77.8381 29.959 80.8697 29.959C83.9012 29.959 86.3593 28.974 88.3667 27.0451C90.3331 25.1163 91.3163 22.6539 91.3163 19.699C91.3163 16.7442 90.3331 14.2818 88.3667 12.3529C86.3593 10.4651 83.8603 9.48016 80.8697 9.48016ZM84.8435 24.0082C83.8193 25.1163 82.5083 25.6498 80.8287 25.6498C79.19 25.6498 77.8381 25.1163 76.8549 24.0082C75.8307 22.9001 75.3391 21.5048 75.3391 19.7401C75.3391 17.9754 75.8307 16.539 76.8549 15.472C77.879 14.3639 79.19 13.8304 80.8287 13.8304C82.4674 13.8304 83.8193 14.3639 84.8435 15.472C85.8677 16.58 86.3593 17.9754 86.3593 19.7401C86.3593 21.5048 85.8677 22.9001 84.8435 24.0082ZM94.8395 29.5896H99.5508V0H94.8395V29.5896ZM104.672 29.5896H109.383V9.84952H104.672V29.5896ZM107.048 0.779754C106.188 0.779754 105.491 1.06703 104.958 1.60055C104.426 2.13406 104.139 2.83174 104.139 3.65253C104.139 4.47332 104.426 5.171 104.958 5.70451C105.491 6.23803 106.188 6.52531 107.048 6.52531C107.908 6.52531 108.605 6.23803 109.137 5.70451C109.67 5.171 109.957 4.47332 109.957 3.65253C109.957 2.83174 109.67 2.1751 109.137 1.60055C108.564 1.06703 107.867 0.779754 107.048 0.779754ZM129.785 21.751C129.621 21.2175 129.416 20.7661 129.17 20.3967C128.924 20.0274 128.597 19.699 128.187 19.3707C127.777 19.0424 127.409 18.7962 127.04 18.632C126.671 18.4268 126.221 18.2627 125.647 18.0985C125.114 17.9343 124.623 17.8112 124.254 17.7291C123.844 17.6471 123.394 17.565 122.82 17.4419C121.673 17.2777 120.649 17.0315 119.707 16.7852C118.765 16.58 118.314 16.0876 118.314 15.2668C118.314 14.6512 118.56 14.1176 119.092 13.7483C119.625 13.3789 120.403 13.1737 121.386 13.1737C122.533 13.1737 123.394 13.42 124.008 13.9124C124.623 14.4049 124.992 15.0205 125.114 15.8003L129.539 14.8564C129.293 13.2148 128.474 11.9015 127.081 10.9166C125.688 9.9316 123.844 9.43913 121.55 9.43913C119.215 9.43913 117.29 10.0137 115.815 11.1628C114.34 12.3119 113.603 13.7483 113.603 15.513C113.603 16.3748 113.726 17.1546 114.012 17.8523C114.299 18.5499 114.627 19.0834 115.036 19.4938C115.446 19.9042 115.979 20.2736 116.634 20.5609C117.29 20.8482 117.904 21.0534 118.478 21.2175C119.051 21.3406 119.707 21.4637 120.444 21.5869C121.509 21.751 122.656 21.9562 123.844 22.2025C124.787 22.4487 125.278 22.9822 125.278 23.803C125.278 24.5828 124.992 25.1573 124.377 25.5677C123.763 25.9781 122.943 26.1833 121.837 26.1833C120.649 26.1833 119.707 25.9371 119.01 25.4036C118.314 24.9111 117.863 24.1724 117.658 23.1874L112.947 24.1313C113.357 26.0192 114.258 27.4555 115.692 28.4405C117.126 29.4665 119.092 29.959 121.55 29.959C124.213 29.959 126.302 29.3434 127.777 28.1532C129.252 26.9631 129.99 25.4036 129.99 23.5157C130.031 22.8591 129.949 22.2845 129.785 21.751Z" fill="#4ebdc6"/>
</svg>
