
<svg width="865" height="270" xmlns="http://www.w3.org/2000/svg"><path d="M55 94a30 30 0 00-24-9c-7 0-15 3-17 6V57a6 6 0 10-11 0v92c0 3 1 5 4 6a68 68 0 0024 4c8 0 17-2 24-9 6-7 7-18 7-28s-1-20-7-28zm-9 48c-3 5-9 7-15 7l-16-3a2 2 0 01-1-2v-36c0-4 2-7 4-8 2-3 7-4 13-4s12 1 15 6c4 4 4 12 4 20s0 16-4 20zm78-48a30 30 0 00-24-9c-7 0-16 2-23 9-6 8-7 18-7 27 0 10 1 21 7 29a30 30 0 0023 9c8 0 17-2 24-9 6-8 7-18 7-29 0-10-1-19-7-27zm-9 48c-3 5-9 6-14 6-6 1-12-1-15-6-4-5-5-12-5-21 0-8 1-14 4-19 4-5 10-6 15-6 6 0 12 1 15 6 4 5 5 11 5 19 0 9-1 16-4 21zm80-50a6 6 0 10-11 0v53l-2 2c-1 0-4 2-14 2a18 18 0 01-15-7c-3-5-4-13-4-21V92a6 6 0 10-11 0v29c0 10 1 21 7 29 6 7 16 9 23 9 4 0 14 1 23-3 2 0 4-4 4-6V92zm40 48l-2 1-2-1-19-50a6 6 0 00-7-3 6 6 0 00-3 7l18 48c2 6 5 9 10 11l-11 29a6 6 0 0010 4l35-92c1-3-1-6-3-7-3-1-6 0-7 3l-19 50zm89-45a6 6 0 00-3-5c-10-5-21-5-25-5-8 0-17 2-24 9-6 8-7 19-7 29s1 19 7 27a30 30 0 0024 9c7 0 14-3 17-6v10a18 18 0 01-4 12 13 13 0 01-10 4 38 38 0 01-19-5c-2-1-6 0-7 2a6 6 0 002 8l12 5 12 1c4 0 8 0 11-2a23 23 0 0013-14l1-11V95zm-11 41c0 4-2 7-4 9s-8 4-13 4c-6 0-12-2-15-7-4-4-5-11-5-19s1-17 4-21c4-5 10-6 15-6l16 2 2 2v36zm76-44a6 6 0 10-11 0v53l-1 2c-1 0-4 2-15 2a18 18 0 01-14-7c-3-5-4-13-4-21V92a6 6 0 10-11 0v29c0 10 0 21 7 29 6 7 15 9 22 9 5 0 15 1 23-3 3 0 4-4 4-6V92zm63 2c-8-9-21-9-23-9-3 0-16 0-23 9-4 4-5 9-6 13a62 62 0 00-2 15c0 10 1 20 8 28a30 30 0 0023 9 43 43 0 0024-5 7 7 0 003-5 5 5 0 00-7-5l-2 1c-5 2-9 4-18 3-6 1-11-1-15-6-3-4-4-11-4-18h44a6 6 0 006-6c0-16-8-24-8-24zm-42 20a18 18 0 017-15c4-3 9-3 11-3 3 0 8-1 13 3 7 5 7 13 7 15h-38zm95-14h1a5 5 0 005-5l-3-6a35 35 0 00-19-4c-6 0-13 2-17 5a16 16 0 00-7 14c0 10 8 18 24 21 6 2 14 5 14 11 0 3-2 7-4 9-4 3-10 3-13 3l-14-3-1-1h-3a5 5 0 00-4 8 6 6 0 002 2 39 39 0 0033 3l8-4a20 20 0 006-7l2-10c0-14-13-20-24-22-10-2-14-6-14-10a6 6 0 011-4l2-2 4-2h5a40 40 0 0116 4z" fill="#009DCC"/><g transform="translate(542 2)"><path d="M189 262c23 15 68-10 101-58s41-99 18-114c-23-16-67 8-99 56s-42 100-20 116z" fill="#EA5B0F"/><path d="M133 262c-23 15-68-10-101-58S-9 105 14 90c23-16 67 8 99 56s42 100 20 116z" fill="#0055A4"/><ellipse fill="#009DCC" cx="160.9" cy="50.1" rx="104.6" ry="50"/></g><path d="M340 189h-2v-14h-4l-1-1v-1l1-1h12l1 1v1l-1 1h-5v14h-1zm32 0h-11-1v-16l1-1h11l1 1v1l-1 1h-9v4h7l1 1v1l-1 1h-7v4h9l1 1v2h-1zm28 0h-11-1v-16l1-1h1l1 1v13h9l1 1v2h-1zm25 0h-11-1v-16l1-1h11l1 1v1l-1 1h-8v4h7l1 1v1l-1 1h-7v4h8l1 1v2h-1zm28-5h-2l-1 2-3 1-3-1-1-5 1-5 3-1 3 1 1 1 1 1 1-1h1v-1l-2-2a8 8 0 00-5-2l-5 2c-2 1-2 3-2 7 0 3 0 5 2 7a8 8 0 005 2l5-2 2-3a1 1 0 00-1-1zm27-10a8 8 0 00-6-2c-1 0-3 0-5 2-2 1-2 3-2 7 0 3 0 5 2 7a8 8 0 005 1c2 1 4 0 6-1 2-2 2-4 2-7 0-4 0-6-2-7zm-3 12l-3 1-2-1c-1-1-2-2-2-5 0-4 1-5 2-6h2l3 1c1 0 2 1 2 5 0 3-1 4-2 5zm33 3h-2v-9l-4 9a1 1 0 01-1 0h-1a1 1 0 01-1 0l-3-9v8l-1 1h-2l-1-1v-15l1-1h2l6 13 5-12 1-1h1l1 1v15l-1 1z" fill="#009DCC"/></svg>
