
<svg xmlns="http://www.w3.org/2000/svg" width="58" height="28" fill="none"><g clip-path="url(#a)"><path d="M9.9 26.3a.7.7 0 0 1-.2-.5V25l1-4.3h2.1l.3-1.4H11l.4-1.8h-1.1l-1 1.7-1.4.6-.2.9H9L8 25 8 26c0 1.2.7 1.8 2 1.8a4.3 4.3 0 0 0 1.7-.3v-1.4l-1.1.3c-.3 0-.5 0-.6-.2ZM16.1 18.2v.2h1.2a16.4 16.4 0 0 0 2.5-2.3v-.2h-2c-.6 1-1.2 1.8-1.7 2.3ZM19 19.8a3 3 0 0 0-2-.5c-.8 0-1.5.2-2.2.7-.6.4-1.2 1-1.6 2-.4.8-.6 1.7-.6 2.7 0 1 .3 1.8.9 2.4.5.5 1.3.8 2.3.8a6 6 0 0 0 2.7-.6v-1.4a8 8 0 0 1-1.3.5l-1 .1c-.6 0-1-.1-1.3-.5a2 2 0 0 1-.5-1.3v-.4h.4c1.5 0 2.7-.3 3.6-.8.8-.5 1.2-1.2 1.2-2.1 0-.7-.2-1.2-.6-1.6ZM17 22.6a5 5 0 0 1-2.2.4h-.2c.2-.7.5-1.3.9-1.7.4-.5.9-.7 1.4-.7.3 0 .5 0 .7.2l.2.6c0 .5-.3 1-.8 1.2ZM22.3 16l-2.5 11.8h1.8L24.1 16h-1.8ZM30 19.9a3 3 0 0 0-1.9-.6c-.8 0-1.6.3-2.2.7-.7.5-1.2 1.2-1.6 2-.4.9-.6 1.8-.6 2.8 0 1 .3 1.8.8 2.4.6.5 1.4.8 2.4.8a6 6 0 0 0 2.6-.6V26a8 8 0 0 1-1.2.5l-1.1.1c-.6 0-1-.2-1.3-.5a2 2 0 0 1-.4-1.3v-.4h.3c1.6 0 2.8-.3 3.6-.8.9-.5 1.3-1.2 1.3-2.2 0-.6-.3-1.1-.7-1.5Zm-1.8 2.8a5 5 0 0 1-2.3.4h-.2c.2-.7.5-1.3 1-1.8.4-.4.8-.6 1.3-.6.3 0 .6 0 .7.2l.3.6c0 .5-.3.9-.8 1.2ZM27.2 18.3v.2h1.2a16.4 16.4 0 0 0 2.5-2.4V16h-2l-1.7 2.3ZM35.6 20.8c.5 0 1 .1 1.7.4l.5-1.4c-.7-.3-1.4-.5-2.2-.5-.9 0-1.7.3-2.3.8-.7.4-1.2 1.1-1.6 2a7 7 0 0 0-.5 2.8c0 1 .2 1.8.8 2.3.5.5 1.3.8 2.3.8a5 5 0 0 0 2.3-.5V26a8 8 0 0 1-1 .4l-1 .2c-.5 0-1-.2-1.2-.5-.3-.3-.4-.7-.4-1.3 0-1.1.2-2 .7-2.8.5-.8 1.1-1.2 1.9-1.2ZM41.9 19.4c-.9 0-1.6.2-2.3.7-.6.4-1.1 1-1.5 2-.4.7-.5 1.7-.5 2.7 0 1 .2 1.7.8 2.3a3 3 0 0 0 2.3.9c.9 0 1.6-.2 2.2-.7.7-.4 1.2-1 1.5-2 .4-.7.6-1.7.6-2.7 0-1-.3-1.8-.8-2.4a3 3 0 0 0-2.3-.8Zm1 5.2c-.2.6-.5 1-.8 1.4-.4.4-.8.5-1.3.5s-.8-.1-1-.4a2 2 0 0 1-.4-1.3c0-.7 0-1.4.3-2 .2-.6.5-1 .8-1.4.4-.4.8-.6 1.3-.6.4 0 .8.2 1 .5.3.3.4.7.4 1.2 0 .8 0 1.5-.3 2ZM57.5 20c-.4-.5-.9-.7-1.6-.7-.5 0-1 .2-1.5.5-.4.3-.9.7-1.2 1.3H53c-.2-1.2-.8-1.8-2-1.8-1 0-1.8.6-2.6 1.7l.1-1.5h-1.4l-1.8 8.3h1.8l.8-3.5c.2-1 .5-2 1-2.6.5-.6 1-1 1.5-1 .6 0 1 .4 1 1.1l-.2 1-1 5H52l.8-3.6c.2-1 .5-1.8 1-2.5.5-.6 1-1 1.5-1 .6 0 1 .4 1 1l-.2 1-1.1 5.1h1.8l1-4.9.2-1.4c0-.7-.2-1.2-.5-1.6Z" fill="#005CA9"/><path d="M55.2 5.2c-1.4 0-2.2.5-2.8 1.1l-.2-.9H50v8.4h2.7V8a2 2 0 0 1 1.3-.6c.8 0 1.3.4 1.3 1.2v5.2H58V8.3c0-2-1-3-2.8-3ZM40.6 10c0 2.8 1 4 3.1 4 1.3 0 2.1-.4 2.6-1.1l.1.9h2.3v-8c-1-.3-2-.6-3.9-.6-2.7 0-4.2 1.7-4.2 4.7Zm5.3 1.2c-.3.3-.7.6-1.3.6-.8 0-1.2-.7-1.2-2 0-1.6.4-2.4 1.3-2.4l1.2.1v3.7ZM36.9 5.2c-1.2 0-1.9.3-2.5.8V2.3h-2.8v11.5h2.8V8a2 2 0 0 1 1.3-.6c.8 0 1.2.4 1.2 1.2v5.2h2.8V8.3c0-2-1-3-2.8-3ZM20 11.2a2 2 0 0 1-1.4.6c-.3 0-.5 0-.7-.2-.3-.2-.5-.5-.5-1V5.5h-2.8V11c0 1.7.7 2.7 2.2 3h.7c1.4 0 2.2-.5 2.8-1.1l.2 1h2.2V5.3h-2.8v5.8ZM28.5 11.7c-1.3 0-2-.9-2-2.2 0-1.2.7-2 2-2 .7 0 1.3.3 1.8.6l.4-2.3c-.8-.3-1.5-.6-2.9-.6-2.7 0-4.2 1.6-4.2 4.4 0 3 1.4 4.4 4.2 4.4 1.3 0 2.5-.4 3-.8l-.3-2.1c-.6.3-1.2.6-2 .6ZM8.7 11l1 2.8h.7l-1-3-.7.2ZM12.1 8.8c-.5.8-1.2 1.4-2 1.8l1 3.2h3.4l-2-5.5-.4.5ZM0 13.8h3.3l1-3.4H1.3L0 13.8ZM4.4 6.2l1.9-1.6 1-2.5.5 1.2 1.2-1 1-.4L9.1 0H5.4C5 .7 3.9 3 2.6 6.3H4l.4-.1Z" fill="#E30613"/><path d="M14 3.5h-1.2c-.2-.4-.9-1-1.8-1-.6 0-1.1.2-1.6.5L7.8 4.2l-3 2.5c-.2.2-.5.3-.8.3H.2v.2c.2.8 1 1.5 2.2 1.5l-1 .9H5c2.4 0 3.8-1 4.8-2.4l.2-.4V7c-.2.6-.8 1.8-2 2.5h1.6c1 0 1.7-.5 2-1 1-1.6 1.4-4.3 1.4-4.3l.8-.3.4-.2v-.1Zm-2.4 1c-.2.2-.6.2-.9 0a.6.6 0 0 1 0-.9l.5-.1H11.6v.1h.1v.1l.1.1c.1.3 0 .5-.1.7Z" fill="#E30613"/><path d="M9.5 9.4H8L7 10l-.1.1 1.3 3.8H9l-1.3-3.5c.9 0 2.8-.2 3.8-1.8-.3.4-1 1-2 1ZM11.2 3.7c-.1 0-.1.3 0 .4h.4v-.4a.3.3 0 0 0-.4 0Z" fill="#E30613"/></g><defs><clipPath id="a"><path fill="#fff" d="M0 0h58v28H0z"/></clipPath></defs></svg>
