
<svg xmlns="http://www.w3.org/2000/svg" width="350" height="350"><path d="M350 350H0V0h350v350z" fill="#f60"/><path d="M43 321.8c-12.6 0-24-8-24-25.7s11.4-25.7 24-25.7c12.8 0 24.2 8 24.2 25.7 0 17.6-11.4 25.7-24.1 25.7m0-40.6c-9.6 0-11.4 8.6-11.4 14.9 0 6.2 1.8 14.9 11.4 14.9s11.3-8.7 11.3-15c0-6.2-1.7-14.8-11.3-14.8M76 271.7h12.2v5.7a18.9 18.9 0 0115-6.7v12h-.6c-5.6 0-11.7 1-13.6 5.3v32.4H76v-48.7zM137.3 316.1c-5 3.3-10.3 4.9-16.1 4.9-9 0-14.5-6-14.5-14.2 0-11 10-16.7 30.7-19v-2.7c0-3.6-2.7-5.6-7.6-5.6-5 0-9 2-12 5.6l-8.6-5c4.6-6.3 11.5-9.5 20.8-9.5 12.7 0 19.8 5.5 19.8 14.5v35.3h-11.4l-1.1-4.3zm-18-10.2c0 3.2 2.1 6.3 5.8 6.3 4 0 8-1.7 11.9-5.1v-11.6c-12 1.5-17.7 4.6-17.7 10.4M160 273l10.6-1.5 1.1 5.8c6-4.4 10.8-6.7 16.7-6.7 10 0 15.2 5.3 15.2 15.8v34h-12.8v-31.8c0-6-1.5-8.6-6.2-8.6-3.8 0-7.6 1.7-12 5.4v35H160v-47.5zM235 309.9c9.7 0 10.6-10 10.6-16.4 0-7.7-3.7-13.8-10.7-13.8-4.6 0-9.7 3.3-9.7 14.3 0 6 .4 16 9.8 15.9m22.9-38.4v46.1c0 8.1-.7 21.6-23.8 21.7-9.6 0-18.5-3.8-20.3-12.2l12.7-2c.5 2.4 2 4.8 9.1 4.8 6.7 0 9.9-3.2 9.9-10.8v-5.7l-.2-.1c-2 3.6-5.1 7-12.6 7-11.3 0-20.3-7.8-20.3-24.3 0-16.3 9.3-25.4 19.6-25.4 9.7 0 13.3 4.4 14.2 6.7h-.2l1-5.8H258zM288.5 321.2c-14.3 0-22.9-9.2-22.9-25.2 0-16.2 8.7-25.4 22.7-25.4s22.4 9 22.4 24.7v2.6h-32.5c.1 9.2 4 13.8 11.5 13.8 4.8 0 8-1.9 11-6.2l9.4 5.2c-4.1 7-11.6 10.5-21.6 10.5m9.7-31.7c0-6.5-3.8-10.3-9.9-10.3-5.8 0-9.4 3.8-9.9 10.3h19.8zM332.7 253.2l-4.7 12.2-4.8-12.2H319v16h2.7v-13.4l5.4 13.5h1.7l5.2-13.5h.1v13.5h2.7v-16.1h-4.1zm-29.7 0v2.1h5v14h2.7v-14h5v-2.1H303z" fill="#fff"/></svg>
