
<svg xmlns="http://www.w3.org/2000/svg" height="136.6" width="233.5" data-name="Layer 1"><g fill="#00e791"><path d="M233.5 60v-8.3c0-15 .1-29.1-11.6-40.8A41.2 41.2 0 00192 0h-42.2v21.6h-47.4v23.9h47.4V67h-47.4v24h47.4v21.5H192c12.5 0 22.8-3.7 30-10.9C233.6 90 233.5 75.4 233.4 60zm-28.3 24.6C201.6 89 196.9 91 190 91h-16.4V21.6h16.4c6.8 0 11.5 2 15.1 6.3 3.2 4 4.4 8.7 4.4 27.9 0 16.5-.7 24.2-4.4 28.8zM59 112.5h26.8L63 67.1c12.4-5.1 20-18 20-31.8C82.9 14.5 67.1 0 45 0H0v112.5h24V71.3h14.2zm-35-91h20c9 0 15 5.7 15 14 0 9.3-6 14.2-15 14.2H24zM156.9 130.2a2.9 2.9 0 001.4-1.1 3.5 3.5 0 00.5-1.9 2.6 2.6 0 00-1.3-2.4 5.5 5.5 0 00-2.5-.3h-3.8l-1.5 11.9h4.8a5.1 5.1 0 002.7-.6 3.5 3.5 0 001.8-3 2.6 2.6 0 00-.8-2 3 3 0 00-1.3-.6zm-3-3.4h.6a2 2 0 011 .2 1 1 0 01.5.9c0 1-.6 1.3-1.9 1.3h-.4zm1.6 6.8c-.4.3-.7.4-1.6.4h-.8l.3-2.6h1a2.5 2.5 0 011.1.1 1 1 0 01.5 1 1.4 1.4 0 01-.5 1.1zM168.3 127.4a7.2 7.2 0 00-.6 1 12.6 12.6 0 00-.7-1.8v-.2l-.9-2h-3.4l3 6.7-.6 5.3h3l.6-5.3 5.2-6.6h-3.7zM186.3 126.7a3.5 3.5 0 012 .9l1.3-2.3a6.2 6.2 0 00-3.4-1c-2.6 0-4.4 1.5-4.4 3.7 0 1.6.6 2.4 2.8 3.4 1 .6 1.3.8 1.3 1.4 0 .7-.6 1.2-1.6 1.2a4.2 4.2 0 01-2.5-1l-1.3 2.3a6.9 6.9 0 004 1.3 4.5 4.5 0 003.3-1.2 4 4 0 001.2-2.9c0-1.6-.6-2.4-2.6-3.3-1.2-.6-1.5-.9-1.5-1.4 0-.6.5-1 1.4-1zM196.8 131.7h3.4l.3-2.6h-3.4l.2-2h3.8l.3-2.6h-6.8l-1.4 11.9h3zM213 130.8a3.7 3.7 0 001-2.6 3.5 3.5 0 00-1.3-3 4.8 4.8 0 00-2.9-.7H206l-1.4 11.9h3l.5-4.8 3 4.8h3.4l-3-4.7a3.3 3.3 0 001.6-1zm-4.3-.9h-.5l.4-3h.5c1.3 0 1.8.3 1.8 1.4 0 1-.7 1.6-2.2 1.6z"/></g></svg>
